# xmcd
#
# Track frame offsets:
#	183
#	16875
#	49058
#
# Disc length: 1063 seconds
#
# Revision: 2
# Processed by: cddbd v1.5.2PL0 Copyright (c) Steve Scherf et al.
# Submitted via: audiograbber 1.83.01
#
DISCID=1a042503
DTITLE=Bobby Brown - Don't Be Cruel
DYEAR=1988
DGENRE=R&B
TTITLE0=Don't Be Cruel (Rapacious Edit)
TTITLE1=Don't Be Cruel (Extended) (The Rapacious Mix)
TTITLE2=Don't Be Cruel (Extended Version)
EXTD=
EXTT0=
EXTT1=
EXTT2=
PLAYORDER=
